<?xml version="1.0" encoding="UTF-8" standalone="no"?><svg xmlns="http://www.w3.org/2000/svg" xmlns:xlink="http://www.w3.org/1999/xlink" contentStyleType="text/css" height="720px" preserveAspectRatio="none" style="width:845px;height:720px;background:#FFFFFF;" version="1.1" viewBox="0 0 845 720" width="845px" zoomAndPan="magnify"><defs/><g><rect fill="#FFFFFF" height="108.2632" style="stroke:#181818;stroke-width:1.0;" width="10" x="21" y="72.8745"/><rect fill="#FFFFFF" height="216.5264" style="stroke:#181818;stroke-width:1.0;" width="10" x="21" y="212.8921"/><rect fill="#FFFFFF" height="203.5264" style="stroke:#181818;stroke-width:1.0;" width="10" x="21" y="461.1729"/><rect fill="#FFFFFF" height="108.2632" style="stroke:#181818;stroke-width:1.0;" width="10" x="149" y="72.8745"/><rect fill="#FFFFFF" height="216.5264" style="stroke:#181818;stroke-width:1.0;" width="10" x="257" y="212.8921"/><rect fill="#FFFFFF" height="171.772" style="stroke:#181818;stroke-width:1.0;" width="10" x="365" y="461.1729"/><rect fill="#FFFFFF" height="63.5088" style="stroke:#181818;stroke-width:1.0;" width="10" x="480" y="601.1904"/><rect fill="#FFFFFF" height="76.5088" style="stroke:#181818;stroke-width:1.0;" width="10" x="691" y="104.6289"/><rect fill="#FFFFFF" height="184.772" style="stroke:#181818;stroke-width:1.0;" width="10" x="691" y="244.6465"/><rect fill="#FFFFFF" height="108.2632" style="stroke:#181818;stroke-width:1.0;" width="10" x="691" y="492.9272"/><line style="stroke:#181818;stroke-width:0.5;stroke-dasharray:5.0,5.0;" x1="26" x2="26" y1="39.1201" y2="682.6992"/><line style="stroke:#181818;stroke-width:0.5;stroke-dasharray:5.0,5.0;" x1="154" x2="154" y1="39.1201" y2="682.6992"/><line style="stroke:#181818;stroke-width:0.5;stroke-dasharray:5.0,5.0;" x1="262" x2="262" y1="39.1201" y2="682.6992"/><line style="stroke:#181818;stroke-width:0.5;stroke-dasharray:5.0,5.0;" x1="370" x2="370" y1="39.1201" y2="682.6992"/><line style="stroke:#181818;stroke-width:0.5;stroke-dasharray:5.0,5.0;" x1="485" x2="485" y1="39.1201" y2="682.6992"/><line style="stroke:#181818;stroke-width:0.5;stroke-dasharray:5.0,5.0;" x1="696" x2="696" y1="39.1201" y2="682.6992"/><rect fill="#E2E2F0" height="33.1201" rx="2.5" ry="2.5" style="stroke:#181818;stroke-width:0.5;" width="42" x="5" y="5"/><text fill="#000000" font-family="AR PL UMing CN" font-size="14" lengthAdjust="spacing" textLength="28" x="12" y="28.0439">用户</text><rect fill="#E2E2F0" height="33.1201" rx="2.5" ry="2.5" style="stroke:#181818;stroke-width:0.5;" width="42" x="5" y="681.6992"/><text fill="#000000" font-family="AR PL UMing CN" font-size="14" lengthAdjust="spacing" textLength="28" x="12" y="704.7432">用户</text><rect fill="#E2E2F0" height="33.1201" rx="2.5" ry="2.5" style="stroke:#181818;stroke-width:0.5;" width="98" x="105" y="5"/><text fill="#000000" font-family="AR PL UMing CN" font-size="14" lengthAdjust="spacing" textLength="84" x="112" y="28.0439">数据上传服务</text><rect fill="#E2E2F0" height="33.1201" rx="2.5" ry="2.5" style="stroke:#181818;stroke-width:0.5;" width="98" x="105" y="681.6992"/><text fill="#000000" font-family="AR PL UMing CN" font-size="14" lengthAdjust="spacing" textLength="84" x="112" y="704.7432">数据上传服务</text><rect fill="#E2E2F0" height="33.1201" rx="2.5" ry="2.5" style="stroke:#181818;stroke-width:0.5;" width="98" x="213" y="5"/><text fill="#000000" font-family="AR PL UMing CN" font-size="14" lengthAdjust="spacing" textLength="84" x="220" y="28.0439">数据处理服务</text><rect fill="#E2E2F0" height="33.1201" rx="2.5" ry="2.5" style="stroke:#181818;stroke-width:0.5;" width="98" x="213" y="681.6992"/><text fill="#000000" font-family="AR PL UMing CN" font-size="14" lengthAdjust="spacing" textLength="84" x="220" y="704.7432">数据处理服务</text><rect fill="#E2E2F0" height="33.1201" rx="2.5" ry="2.5" style="stroke:#181818;stroke-width:0.5;" width="98" x="321" y="5"/><text fill="#000000" font-family="AR PL UMing CN" font-size="14" lengthAdjust="spacing" textLength="84" x="328" y="28.0439">数据分析服务</text><rect fill="#E2E2F0" height="33.1201" rx="2.5" ry="2.5" style="stroke:#181818;stroke-width:0.5;" width="98" x="321" y="681.6992"/><text fill="#000000" font-family="AR PL UMing CN" font-size="14" lengthAdjust="spacing" textLength="84" x="328" y="704.7432">数据分析服务</text><rect fill="#E2E2F0" height="33.1201" rx="2.5" ry="2.5" style="stroke:#181818;stroke-width:0.5;" width="112" x="429" y="5"/><text fill="#000000" font-family="AR PL UMing CN" font-size="14" lengthAdjust="spacing" textLength="98" x="436" y="28.0439">结果可视化服务</text><rect fill="#E2E2F0" height="33.1201" rx="2.5" ry="2.5" style="stroke:#181818;stroke-width:0.5;" width="112" x="429" y="681.6992"/><text fill="#000000" font-family="AR PL UMing CN" font-size="14" lengthAdjust="spacing" textLength="98" x="436" y="704.7432">结果可视化服务</text><rect fill="#E2E2F0" height="33.1201" rx="2.5" ry="2.5" style="stroke:#181818;stroke-width:0.5;" width="56" x="668" y="5"/><text fill="#000000" font-family="AR PL UMing CN" font-size="14" lengthAdjust="spacing" textLength="42" x="675" y="28.0439">数据库</text><rect fill="#E2E2F0" height="33.1201" rx="2.5" ry="2.5" style="stroke:#181818;stroke-width:0.5;" width="56" x="668" y="681.6992"/><text fill="#000000" font-family="AR PL UMing CN" font-size="14" lengthAdjust="spacing" textLength="42" x="675" y="704.7432">数据库</text><rect fill="#FFFFFF" height="108.2632" style="stroke:#181818;stroke-width:1.0;" width="10" x="21" y="72.8745"/><rect fill="#FFFFFF" height="216.5264" style="stroke:#181818;stroke-width:1.0;" width="10" x="21" y="212.8921"/><rect fill="#FFFFFF" height="203.5264" style="stroke:#181818;stroke-width:1.0;" width="10" x="21" y="461.1729"/><rect fill="#FFFFFF" height="108.2632" style="stroke:#181818;stroke-width:1.0;" width="10" x="149" y="72.8745"/><rect fill="#FFFFFF" height="216.5264" style="stroke:#181818;stroke-width:1.0;" width="10" x="257" y="212.8921"/><rect fill="#FFFFFF" height="171.772" style="stroke:#181818;stroke-width:1.0;" width="10" x="365" y="461.1729"/><rect fill="#FFFFFF" height="63.5088" style="stroke:#181818;stroke-width:1.0;" width="10" x="480" y="601.1904"/><rect fill="#FFFFFF" height="76.5088" style="stroke:#181818;stroke-width:1.0;" width="10" x="691" y="104.6289"/><rect fill="#FFFFFF" height="184.772" style="stroke:#181818;stroke-width:1.0;" width="10" x="691" y="244.6465"/><rect fill="#FFFFFF" height="108.2632" style="stroke:#181818;stroke-width:1.0;" width="10" x="691" y="492.9272"/><polygon fill="#181818" points="137,68.8745,147,72.8745,137,76.8745,141,72.8745" style="stroke:#181818;stroke-width:1.0;"/><line style="stroke:#181818;stroke-width:1.0;" x1="31" x2="143" y1="72.8745" y2="72.8745"/><text fill="#000000" font-family="AR PL UMing CN" font-size="13" lengthAdjust="spacing" textLength="104" x="38" y="68.0181">数据文件上传请求</text><polygon fill="#181818" points="679,100.6289,689,104.6289,679,108.6289,683,104.6289" style="stroke:#181818;stroke-width:1.0;"/><line style="stroke:#181818;stroke-width:1.0;" x1="159" x2="685" y1="104.6289" y2="104.6289"/><text fill="#000000" font-family="AR PL UMing CN" font-size="13" lengthAdjust="spacing" textLength="97" x="376.5" y="99.7725">数据文件（csv）</text><line style="stroke:#181818;stroke-width:1.0;" x1="701" x2="743" y1="136.3833" y2="136.3833"/><line style="stroke:#181818;stroke-width:1.0;" x1="743" x2="743" y1="136.3833" y2="149.3833"/><line style="stroke:#181818;stroke-width:1.0;" x1="702" x2="743" y1="149.3833" y2="149.3833"/><polygon fill="#181818" points="712,145.3833,702,149.3833,712,153.3833,708,149.3833" style="stroke:#181818;stroke-width:1.0;"/><text fill="#000000" font-family="AR PL UMing CN" font-size="13" lengthAdjust="spacing" textLength="104" x="708" y="131.5269">写入文件存储地址</text><polygon fill="#181818" points="37,177.1377,27,181.1377,37,185.1377,33,181.1377" style="stroke:#181818;stroke-width:1.0;"/><line style="stroke:#181818;stroke-width:1.0;stroke-dasharray:2.0,2.0;" x1="31" x2="695" y1="181.1377" y2="181.1377"/><text fill="#000000" font-family="AR PL UMing CN" font-size="13" lengthAdjust="spacing" textLength="52" x="335" y="176.2813">返回结果</text><polygon fill="#181818" points="245,208.8921,255,212.8921,245,216.8921,249,212.8921" style="stroke:#181818;stroke-width:1.0;"/><line style="stroke:#181818;stroke-width:1.0;" x1="31" x2="251" y1="212.8921" y2="212.8921"/><text fill="#000000" font-family="AR PL UMing CN" font-size="13" lengthAdjust="spacing" textLength="78" x="105" y="208.0356">请求数据处理</text><polygon fill="#181818" points="679,240.6465,689,244.6465,679,248.6465,683,244.6465" style="stroke:#181818;stroke-width:1.0;"/><line style="stroke:#181818;stroke-width:1.0;" x1="267" x2="685" y1="244.6465" y2="244.6465"/><text fill="#000000" font-family="AR PL UMing CN" font-size="13" lengthAdjust="spacing" textLength="52" x="453" y="239.79">条件数据</text><line style="stroke:#181818;stroke-width:1.0;" x1="701" x2="743" y1="276.4009" y2="276.4009"/><line style="stroke:#181818;stroke-width:1.0;" x1="743" x2="743" y1="276.4009" y2="289.4009"/><line style="stroke:#181818;stroke-width:1.0;" x1="702" x2="743" y1="289.4009" y2="289.4009"/><polygon fill="#181818" points="712,285.4009,702,289.4009,712,293.4009,708,289.4009" style="stroke:#181818;stroke-width:1.0;"/><text fill="#000000" font-family="AR PL UMing CN" font-size="13" lengthAdjust="spacing" textLength="130" x="708" y="271.5444">根据条件进行数据查询</text><polygon fill="#181818" points="278,317.1553,268,321.1553,278,325.1553,274,321.1553" style="stroke:#181818;stroke-width:1.0;"/><line style="stroke:#181818;stroke-width:1.0;stroke-dasharray:2.0,2.0;" x1="272" x2="690" y1="321.1553" y2="321.1553"/><text fill="#000000" font-family="AR PL UMing CN" font-size="13" lengthAdjust="spacing" textLength="143" x="407.5" y="316.2988">返回相应文件的存储地址</text><polygon fill="#181818" points="679,348.9097,689,352.9097,679,356.9097,683,352.9097" style="stroke:#181818;stroke-width:1.0;"/><line style="stroke:#181818;stroke-width:1.0;" x1="267" x2="685" y1="352.9097" y2="352.9097"/><text fill="#000000" font-family="AR PL UMing CN" font-size="13" lengthAdjust="spacing" textLength="130" x="414" y="348.0532">处理后数据的存储地址</text><line style="stroke:#181818;stroke-width:1.0;" x1="701" x2="743" y1="384.6641" y2="384.6641"/><line style="stroke:#181818;stroke-width:1.0;" x1="743" x2="743" y1="384.6641" y2="397.6641"/><line style="stroke:#181818;stroke-width:1.0;" x1="702" x2="743" y1="397.6641" y2="397.6641"/><polygon fill="#181818" points="712,393.6641,702,397.6641,712,401.6641,708,397.6641" style="stroke:#181818;stroke-width:1.0;"/><text fill="#000000" font-family="AR PL UMing CN" font-size="13" lengthAdjust="spacing" textLength="78" x="708" y="379.8076">写入存储地址</text><polygon fill="#181818" points="37,425.4185,27,429.4185,37,433.4185,33,429.4185" style="stroke:#181818;stroke-width:1.0;"/><line style="stroke:#181818;stroke-width:1.0;stroke-dasharray:2.0,2.0;" x1="31" x2="695" y1="429.4185" y2="429.4185"/><text fill="#000000" font-family="AR PL UMing CN" font-size="13" lengthAdjust="spacing" textLength="78" x="322" y="424.562">返回处理结果</text><polygon fill="#181818" points="353,457.1729,363,461.1729,353,465.1729,357,461.1729" style="stroke:#181818;stroke-width:1.0;"/><line style="stroke:#181818;stroke-width:1.0;" x1="31" x2="359" y1="461.1729" y2="461.1729"/><text fill="#000000" font-family="AR PL UMing CN" font-size="13" lengthAdjust="spacing" textLength="78" x="159" y="456.3164">请求数据分析</text><polygon fill="#181818" points="679,488.9272,689,492.9272,679,496.9272,683,492.9272" style="stroke:#181818;stroke-width:1.0;"/><line style="stroke:#181818;stroke-width:1.0;" x1="375" x2="685" y1="492.9272" y2="492.9272"/><text fill="#000000" font-family="AR PL UMing CN" font-size="13" lengthAdjust="spacing" textLength="52" x="507" y="488.0708">条件数据</text><line style="stroke:#181818;stroke-width:1.0;" x1="701" x2="743" y1="524.6816" y2="524.6816"/><line style="stroke:#181818;stroke-width:1.0;" x1="743" x2="743" y1="524.6816" y2="537.6816"/><line style="stroke:#181818;stroke-width:1.0;" x1="702" x2="743" y1="537.6816" y2="537.6816"/><polygon fill="#181818" points="712,533.6816,702,537.6816,712,541.6816,708,537.6816" style="stroke:#181818;stroke-width:1.0;"/><text fill="#000000" font-family="AR PL UMing CN" font-size="13" lengthAdjust="spacing" textLength="130" x="708" y="519.8252">根据条件进行数据查询</text><polygon fill="#181818" points="386,565.436,376,569.436,386,573.436,382,569.436" style="stroke:#181818;stroke-width:1.0;"/><line style="stroke:#181818;stroke-width:1.0;stroke-dasharray:2.0,2.0;" x1="380" x2="690" y1="569.436" y2="569.436"/><text fill="#000000" font-family="AR PL UMing CN" font-size="13" lengthAdjust="spacing" textLength="182" x="442" y="564.5796">返回相应处理后的数据文件地址</text><polygon fill="#181818" points="501,597.1904,491,601.1904,501,605.1904,497,601.1904" style="stroke:#181818;stroke-width:1.0;"/><line style="stroke:#181818;stroke-width:1.0;stroke-dasharray:2.0,2.0;" x1="495" x2="695" y1="601.1904" y2="601.1904"/><text fill="#000000" font-family="AR PL UMing CN" font-size="13" lengthAdjust="spacing" textLength="182" x="502" y="596.334">返回相应处理后的数据文件地址</text><polygon fill="#181818" points="42,628.9448,32,632.9448,42,636.9448,38,632.9448" style="stroke:#181818;stroke-width:1.0;"/><line style="stroke:#181818;stroke-width:1.0;stroke-dasharray:2.0,2.0;" x1="36" x2="369" y1="632.9448" y2="632.9448"/><text fill="#000000" font-family="AR PL UMing CN" font-size="13" lengthAdjust="spacing" textLength="78" x="161.5" y="628.0884">返回分析结果</text><polygon fill="#181818" points="37,660.6992,27,664.6992,37,668.6992,33,664.6992" style="stroke:#181818;stroke-width:1.0;"/><line style="stroke:#181818;stroke-width:1.0;stroke-dasharray:2.0,2.0;" x1="31" x2="484" y1="664.6992" y2="664.6992"/><text fill="#000000" font-family="AR PL UMing CN" font-size="13" lengthAdjust="spacing" textLength="91" x="210" y="659.8428">返回可视化结果</text><!--MD5=[368fb4fa8d8d51d08f30d366a803d0b4]
@startuml dataana
skinparam defaultFontName AR PL UMing CN
skinparam sequenceMessageAlign center
participant 用户
participant 数据上传服务
participant 数据处理服务
participant 数据分析服务
participant 结果可视化服务
participant 数据库


用户-> 数据上传服务: 数据文件上传请求
activate 用户
activate 数据上传服务
数据上传服务-> 数据库:数据文件（csv）
activate 数据库
数据库-> 数据库: 写入文件存储地址
数据库- -> 用户: 返回结果
deactivate 数据上传服务
deactivate 数据库
deactivate 用户


用户-> 数据处理服务: 请求数据处理
activate 用户
activate 数据处理服务
数据处理服务-> 数据库: 条件数据
activate 数据库
数据库-> 数据库: 根据条件进行数据查询
数据库- -> 数据处理服务: 返回相应文件的存储地址
数据处理服务-> 数据库: 处理后数据的存储地址
数据库-> 数据库: 写入存储地址
数据库- -> 用户: 返回处理结果
deactivate 数据处理服务
deactivate 数据库
deactivate 用户


用户-> 数据分析服务: 请求数据分析
activate 用户
activate 数据分析服务
数据分析服务-> 数据库: 条件数据
activate 数据库
数据库-> 数据库: 根据条件进行数据查询
数据库- -> 数据分析服务: 返回相应处理后的数据文件地址
数据库- -> 结果可视化服务: 返回相应处理后的数据文件地址
deactivate 数据库
activate 结果可视化服务
数据分析服务- -> 用户: 返回分析结果
deactivate 数据分析服务
结果可视化服务- -> 用户: 返回可视化结果
deactivate 结果可视化服务
deactivate 用户
@enduml

PlantUML version 1.2022.7(Tue Aug 23 01:01:30 CST 2022)
(GPL source distribution)
Java Runtime: Java(TM) SE Runtime Environment
JVM: Java HotSpot(TM) 64-Bit Server VM
Default Encoding: GBK
Language: zh
Country: CN
--></g></svg>