<?xml version="1.0" encoding="UTF-8" standalone="no"?><svg xmlns="http://www.w3.org/2000/svg" xmlns:xlink="http://www.w3.org/1999/xlink" contentStyleType="text/css" height="886px" preserveAspectRatio="none" style="width:723px;height:886px;background:#FFFFFF;" version="1.1" viewBox="0 0 723 886" width="723px" zoomAndPan="magnify"><defs/><g><rect fill="#FFFFFF" height="153.0176" style="stroke:#181818;stroke-width:1.0;" width="10" x="21" y="72.8745"/><rect fill="#FFFFFF" height="153.0176" style="stroke:#181818;stroke-width:1.0;" width="10" x="21" y="257.6465"/><rect fill="#FFFFFF" height="108.2632" style="stroke:#181818;stroke-width:1.0;" width="10" x="21" y="442.4185"/><rect fill="#FFFFFF" height="248.2808" style="stroke:#181818;stroke-width:1.0;" width="10" x="21" y="582.436"/><rect fill="#FFFFFF" height="153.0176" style="stroke:#181818;stroke-width:1.0;" width="10" x="149" y="72.8745"/><rect fill="#FFFFFF" height="153.0176" style="stroke:#181818;stroke-width:1.0;" width="10" x="257" y="257.6465"/><rect fill="#FFFFFF" height="108.2632" style="stroke:#181818;stroke-width:1.0;" width="10" x="351" y="442.4185"/><rect fill="#FFFFFF" height="248.2808" style="stroke:#181818;stroke-width:1.0;" width="10" x="431" y="582.436"/><rect fill="#FFFFFF" height="121.2632" style="stroke:#181818;stroke-width:1.0;" width="10" x="569" y="104.6289"/><rect fill="#FFFFFF" height="121.2632" style="stroke:#181818;stroke-width:1.0;" width="10" x="569" y="289.4009"/><rect fill="#FFFFFF" height="76.5088" style="stroke:#181818;stroke-width:1.0;" width="10" x="569" y="474.1729"/><rect fill="#FFFFFF" height="184.772" style="stroke:#181818;stroke-width:1.0;" width="10" x="569" y="614.1904"/><line style="stroke:#181818;stroke-width:0.5;stroke-dasharray:5.0,5.0;" x1="26" x2="26" y1="39.1201" y2="848.7168"/><line style="stroke:#181818;stroke-width:0.5;stroke-dasharray:5.0,5.0;" x1="154" x2="154" y1="39.1201" y2="848.7168"/><line style="stroke:#181818;stroke-width:0.5;stroke-dasharray:5.0,5.0;" x1="262" x2="262" y1="39.1201" y2="848.7168"/><line style="stroke:#181818;stroke-width:0.5;stroke-dasharray:5.0,5.0;" x1="356" x2="356" y1="39.1201" y2="848.7168"/><line style="stroke:#181818;stroke-width:0.5;stroke-dasharray:5.0,5.0;" x1="436" x2="436" y1="39.1201" y2="848.7168"/><line style="stroke:#181818;stroke-width:0.5;stroke-dasharray:5.0,5.0;" x1="574" x2="574" y1="39.1201" y2="848.7168"/><rect fill="#E2E2F0" height="33.1201" rx="2.5" ry="2.5" style="stroke:#181818;stroke-width:0.5;" width="42" x="5" y="5"/><text fill="#000000" font-family="AR PL UMing CN" font-size="14" lengthAdjust="spacing" textLength="28" x="12" y="28.0439">用户</text><rect fill="#E2E2F0" height="33.1201" rx="2.5" ry="2.5" style="stroke:#181818;stroke-width:0.5;" width="42" x="5" y="847.7168"/><text fill="#000000" font-family="AR PL UMing CN" font-size="14" lengthAdjust="spacing" textLength="28" x="12" y="870.7607">用户</text><rect fill="#E2E2F0" height="33.1201" rx="2.5" ry="2.5" style="stroke:#181818;stroke-width:0.5;" width="98" x="105" y="5"/><text fill="#000000" font-family="AR PL UMing CN" font-size="14" lengthAdjust="spacing" textLength="84" x="112" y="28.0439">用户信息管理</text><rect fill="#E2E2F0" height="33.1201" rx="2.5" ry="2.5" style="stroke:#181818;stroke-width:0.5;" width="98" x="105" y="847.7168"/><text fill="#000000" font-family="AR PL UMing CN" font-size="14" lengthAdjust="spacing" textLength="84" x="112" y="870.7607">用户信息管理</text><rect fill="#E2E2F0" height="33.1201" rx="2.5" ry="2.5" style="stroke:#181818;stroke-width:0.5;" width="98" x="213" y="5"/><text fill="#000000" font-family="AR PL UMing CN" font-size="14" lengthAdjust="spacing" textLength="84" x="220" y="28.0439">系统用户管理</text><rect fill="#E2E2F0" height="33.1201" rx="2.5" ry="2.5" style="stroke:#181818;stroke-width:0.5;" width="98" x="213" y="847.7168"/><text fill="#000000" font-family="AR PL UMing CN" font-size="14" lengthAdjust="spacing" textLength="84" x="220" y="870.7607">系统用户管理</text><rect fill="#E2E2F0" height="33.1201" rx="2.5" ry="2.5" style="stroke:#181818;stroke-width:0.5;" width="70" x="321" y="5"/><text fill="#000000" font-family="AR PL UMing CN" font-size="14" lengthAdjust="spacing" textLength="56" x="328" y="28.0439">被试管理</text><rect fill="#E2E2F0" height="33.1201" rx="2.5" ry="2.5" style="stroke:#181818;stroke-width:0.5;" width="70" x="321" y="847.7168"/><text fill="#000000" font-family="AR PL UMing CN" font-size="14" lengthAdjust="spacing" textLength="56" x="328" y="870.7607">被试管理</text><rect fill="#E2E2F0" height="33.1201" rx="2.5" ry="2.5" style="stroke:#181818;stroke-width:0.5;" width="70" x="401" y="5"/><text fill="#000000" font-family="AR PL UMing CN" font-size="14" lengthAdjust="spacing" textLength="56" x="408" y="28.0439">实验管理</text><rect fill="#E2E2F0" height="33.1201" rx="2.5" ry="2.5" style="stroke:#181818;stroke-width:0.5;" width="70" x="401" y="847.7168"/><text fill="#000000" font-family="AR PL UMing CN" font-size="14" lengthAdjust="spacing" textLength="56" x="408" y="870.7607">实验管理</text><rect fill="#E2E2F0" height="33.1201" rx="2.5" ry="2.5" style="stroke:#181818;stroke-width:0.5;" width="56" x="546" y="5"/><text fill="#000000" font-family="AR PL UMing CN" font-size="14" lengthAdjust="spacing" textLength="42" x="553" y="28.0439">数据库</text><rect fill="#E2E2F0" height="33.1201" rx="2.5" ry="2.5" style="stroke:#181818;stroke-width:0.5;" width="56" x="546" y="847.7168"/><text fill="#000000" font-family="AR PL UMing CN" font-size="14" lengthAdjust="spacing" textLength="42" x="553" y="870.7607">数据库</text><rect fill="#FFFFFF" height="153.0176" style="stroke:#181818;stroke-width:1.0;" width="10" x="21" y="72.8745"/><rect fill="#FFFFFF" height="153.0176" style="stroke:#181818;stroke-width:1.0;" width="10" x="21" y="257.6465"/><rect fill="#FFFFFF" height="108.2632" style="stroke:#181818;stroke-width:1.0;" width="10" x="21" y="442.4185"/><rect fill="#FFFFFF" height="248.2808" style="stroke:#181818;stroke-width:1.0;" width="10" x="21" y="582.436"/><rect fill="#FFFFFF" height="153.0176" style="stroke:#181818;stroke-width:1.0;" width="10" x="149" y="72.8745"/><rect fill="#FFFFFF" height="153.0176" style="stroke:#181818;stroke-width:1.0;" width="10" x="257" y="257.6465"/><rect fill="#FFFFFF" height="108.2632" style="stroke:#181818;stroke-width:1.0;" width="10" x="351" y="442.4185"/><rect fill="#FFFFFF" height="248.2808" style="stroke:#181818;stroke-width:1.0;" width="10" x="431" y="582.436"/><rect fill="#FFFFFF" height="121.2632" style="stroke:#181818;stroke-width:1.0;" width="10" x="569" y="104.6289"/><rect fill="#FFFFFF" height="121.2632" style="stroke:#181818;stroke-width:1.0;" width="10" x="569" y="289.4009"/><rect fill="#FFFFFF" height="76.5088" style="stroke:#181818;stroke-width:1.0;" width="10" x="569" y="474.1729"/><rect fill="#FFFFFF" height="184.772" style="stroke:#181818;stroke-width:1.0;" width="10" x="569" y="614.1904"/><polygon fill="#181818" points="137,68.8745,147,72.8745,137,76.8745,141,72.8745" style="stroke:#181818;stroke-width:1.0;"/><line style="stroke:#181818;stroke-width:1.0;" x1="31" x2="143" y1="72.8745" y2="72.8745"/><text fill="#000000" font-family="AR PL UMing CN" font-size="13" lengthAdjust="spacing" textLength="104" x="38" y="68.0181">请求修改用户信息</text><polygon fill="#181818" points="557,100.6289,567,104.6289,557,108.6289,561,104.6289" style="stroke:#181818;stroke-width:1.0;"/><line style="stroke:#181818;stroke-width:1.0;" x1="159" x2="563" y1="104.6289" y2="104.6289"/><text fill="#000000" font-family="AR PL UMing CN" font-size="13" lengthAdjust="spacing" textLength="91" x="318.5" y="99.7725">修改的数据信息</text><line style="stroke:#181818;stroke-width:1.0;" x1="579" x2="621" y1="136.3833" y2="136.3833"/><line style="stroke:#181818;stroke-width:1.0;" x1="621" x2="621" y1="136.3833" y2="149.3833"/><line style="stroke:#181818;stroke-width:1.0;" x1="580" x2="621" y1="149.3833" y2="149.3833"/><polygon fill="#181818" points="590,145.3833,580,149.3833,590,153.3833,586,149.3833" style="stroke:#181818;stroke-width:1.0;"/><text fill="#000000" font-family="AR PL UMing CN" font-size="13" lengthAdjust="spacing" textLength="78" x="586" y="131.5269">进行用户查询</text><line style="stroke:#181818;stroke-width:1.0;" x1="579" x2="621" y1="181.1377" y2="181.1377"/><line style="stroke:#181818;stroke-width:1.0;" x1="621" x2="621" y1="181.1377" y2="194.1377"/><line style="stroke:#181818;stroke-width:1.0;" x1="580" x2="621" y1="194.1377" y2="194.1377"/><polygon fill="#181818" points="590,190.1377,580,194.1377,590,198.1377,586,194.1377" style="stroke:#181818;stroke-width:1.0;"/><text fill="#000000" font-family="AR PL UMing CN" font-size="13" lengthAdjust="spacing" textLength="91" x="586" y="176.2813">写入修改的数据</text><polygon fill="#181818" points="37,221.8921,27,225.8921,37,229.8921,33,225.8921" style="stroke:#181818;stroke-width:1.0;"/><line style="stroke:#181818;stroke-width:1.0;stroke-dasharray:2.0,2.0;" x1="31" x2="573" y1="225.8921" y2="225.8921"/><text fill="#000000" font-family="AR PL UMing CN" font-size="13" lengthAdjust="spacing" textLength="52" x="274" y="221.0356">返回结果</text><polygon fill="#181818" points="245,253.6465,255,257.6465,245,261.6465,249,257.6465" style="stroke:#181818;stroke-width:1.0;"/><line style="stroke:#181818;stroke-width:1.0;" x1="31" x2="251" y1="257.6465" y2="257.6465"/><text fill="#000000" font-family="AR PL UMing CN" font-size="13" lengthAdjust="spacing" textLength="26" x="131" y="252.79">请求</text><polygon fill="#181818" points="557,285.4009,567,289.4009,557,293.4009,561,289.4009" style="stroke:#181818;stroke-width:1.0;"/><line style="stroke:#181818;stroke-width:1.0;" x1="267" x2="563" y1="289.4009" y2="289.4009"/><text fill="#000000" font-family="AR PL UMing CN" font-size="13" lengthAdjust="spacing" textLength="65" x="385.5" y="284.5444">连接数据库</text><line style="stroke:#181818;stroke-width:1.0;" x1="579" x2="621" y1="321.1553" y2="321.1553"/><line style="stroke:#181818;stroke-width:1.0;" x1="621" x2="621" y1="321.1553" y2="334.1553"/><line style="stroke:#181818;stroke-width:1.0;" x1="580" x2="621" y1="334.1553" y2="334.1553"/><polygon fill="#181818" points="590,330.1553,580,334.1553,590,338.1553,586,334.1553" style="stroke:#181818;stroke-width:1.0;"/><text fill="#000000" font-family="AR PL UMing CN" font-size="13" lengthAdjust="spacing" textLength="52" x="586" y="316.2988">数据查询</text><line style="stroke:#181818;stroke-width:1.0;" x1="579" x2="621" y1="365.9097" y2="365.9097"/><line style="stroke:#181818;stroke-width:1.0;" x1="621" x2="621" y1="365.9097" y2="378.9097"/><line style="stroke:#181818;stroke-width:1.0;" x1="580" x2="621" y1="378.9097" y2="378.9097"/><polygon fill="#181818" points="590,374.9097,580,378.9097,590,382.9097,586,378.9097" style="stroke:#181818;stroke-width:1.0;"/><text fill="#000000" font-family="AR PL UMing CN" font-size="13" lengthAdjust="spacing" textLength="52" x="586" y="361.0532">数据操作</text><polygon fill="#181818" points="37,406.6641,27,410.6641,37,414.6641,33,410.6641" style="stroke:#181818;stroke-width:1.0;"/><line style="stroke:#181818;stroke-width:1.0;stroke-dasharray:2.0,2.0;" x1="31" x2="573" y1="410.6641" y2="410.6641"/><text fill="#000000" font-family="AR PL UMing CN" font-size="13" lengthAdjust="spacing" textLength="78" x="261" y="405.8076">返回查询结果</text><polygon fill="#181818" points="339,438.4185,349,442.4185,339,446.4185,343,442.4185" style="stroke:#181818;stroke-width:1.0;"/><line style="stroke:#181818;stroke-width:1.0;" x1="31" x2="345" y1="442.4185" y2="442.4185"/><text fill="#000000" font-family="AR PL UMing CN" font-size="13" lengthAdjust="spacing" textLength="26" x="178" y="437.562">请求</text><polygon fill="#181818" points="557,470.1729,567,474.1729,557,478.1729,561,474.1729" style="stroke:#181818;stroke-width:1.0;"/><line style="stroke:#181818;stroke-width:1.0;" x1="361" x2="563" y1="474.1729" y2="474.1729"/><text fill="#000000" font-family="AR PL UMing CN" font-size="13" lengthAdjust="spacing" textLength="65" x="432.5" y="469.3164">连接数据库</text><line style="stroke:#181818;stroke-width:1.0;" x1="579" x2="621" y1="505.9272" y2="505.9272"/><line style="stroke:#181818;stroke-width:1.0;" x1="621" x2="621" y1="505.9272" y2="518.9272"/><line style="stroke:#181818;stroke-width:1.0;" x1="580" x2="621" y1="518.9272" y2="518.9272"/><polygon fill="#181818" points="590,514.9272,580,518.9272,590,522.9272,586,518.9272" style="stroke:#181818;stroke-width:1.0;"/><text fill="#000000" font-family="AR PL UMing CN" font-size="13" lengthAdjust="spacing" textLength="130" x="586" y="501.0708">根据条件进行数据查询</text><polygon fill="#181818" points="37,546.6816,27,550.6816,37,554.6816,33,550.6816" style="stroke:#181818;stroke-width:1.0;"/><line style="stroke:#181818;stroke-width:1.0;stroke-dasharray:2.0,2.0;" x1="31" x2="573" y1="550.6816" y2="550.6816"/><text fill="#000000" font-family="AR PL UMing CN" font-size="13" lengthAdjust="spacing" textLength="78" x="261" y="545.8252">返回查询结果</text><polygon fill="#181818" points="419,578.436,429,582.436,419,586.436,423,582.436" style="stroke:#181818;stroke-width:1.0;"/><line style="stroke:#181818;stroke-width:1.0;" x1="31" x2="425" y1="582.436" y2="582.436"/><text fill="#000000" font-family="AR PL UMing CN" font-size="13" lengthAdjust="spacing" textLength="26" x="218" y="577.5796">请求</text><polygon fill="#181818" points="557,610.1904,567,614.1904,557,618.1904,561,614.1904" style="stroke:#181818;stroke-width:1.0;"/><line style="stroke:#181818;stroke-width:1.0;" x1="441" x2="563" y1="614.1904" y2="614.1904"/><text fill="#000000" font-family="AR PL UMing CN" font-size="13" lengthAdjust="spacing" textLength="65" x="472.5" y="609.334">连接数据库</text><line style="stroke:#181818;stroke-width:1.0;" x1="579" x2="621" y1="645.9448" y2="645.9448"/><line style="stroke:#181818;stroke-width:1.0;" x1="621" x2="621" y1="645.9448" y2="658.9448"/><line style="stroke:#181818;stroke-width:1.0;" x1="580" x2="621" y1="658.9448" y2="658.9448"/><polygon fill="#181818" points="590,654.9448,580,658.9448,590,662.9448,586,658.9448" style="stroke:#181818;stroke-width:1.0;"/><text fill="#000000" font-family="AR PL UMing CN" font-size="13" lengthAdjust="spacing" textLength="52" x="586" y="641.0884">数据查询</text><polygon fill="#181818" points="452,686.6992,442,690.6992,452,694.6992,448,690.6992" style="stroke:#181818;stroke-width:1.0;"/><line style="stroke:#181818;stroke-width:1.0;stroke-dasharray:2.0,2.0;" x1="446" x2="568" y1="690.6992" y2="690.6992"/><text fill="#000000" font-family="AR PL UMing CN" font-size="13" lengthAdjust="spacing" textLength="52" x="479" y="685.8428">实验信息</text><polygon fill="#181818" points="557,718.4536,567,722.4536,557,726.4536,561,722.4536" style="stroke:#181818;stroke-width:1.0;"/><line style="stroke:#181818;stroke-width:1.0;" x1="441" x2="563" y1="722.4536" y2="722.4536"/><text fill="#000000" font-family="AR PL UMing CN" font-size="13" lengthAdjust="spacing" textLength="104" x="453" y="717.5972">查询详细实验信息</text><line style="stroke:#181818;stroke-width:1.0;" x1="579" x2="621" y1="754.208" y2="754.208"/><line style="stroke:#181818;stroke-width:1.0;" x1="621" x2="621" y1="754.208" y2="767.208"/><line style="stroke:#181818;stroke-width:1.0;" x1="580" x2="621" y1="767.208" y2="767.208"/><polygon fill="#181818" points="590,763.208,580,767.208,590,771.208,586,767.208" style="stroke:#181818;stroke-width:1.0;"/><text fill="#000000" font-family="AR PL UMing CN" font-size="13" lengthAdjust="spacing" textLength="52" x="586" y="749.3516">数据查询</text><polygon fill="#181818" points="452,794.9624,442,798.9624,452,802.9624,448,798.9624" style="stroke:#181818;stroke-width:1.0;"/><line style="stroke:#181818;stroke-width:1.0;stroke-dasharray:2.0,2.0;" x1="446" x2="573" y1="798.9624" y2="798.9624"/><text fill="#000000" font-family="AR PL UMing CN" font-size="13" lengthAdjust="spacing" textLength="52" x="481.5" y="794.106">查询结果</text><polygon fill="#181818" points="37,826.7168,27,830.7168,37,834.7168,33,830.7168" style="stroke:#181818;stroke-width:1.0;"/><line style="stroke:#181818;stroke-width:1.0;stroke-dasharray:2.0,2.0;" x1="31" x2="435" y1="830.7168" y2="830.7168"/><text fill="#000000" font-family="AR PL UMing CN" font-size="13" lengthAdjust="spacing" textLength="52" x="205" y="825.8604">返回结果</text><!--MD5=[4f44451482002e579fe242bf31206378]
@startuml dataana
skinparam defaultFontName AR PL UMing CN
skinparam sequenceMessageAlign center
participant 用户
participant 用户信息管理
participant 系统用户管理
participant 被试管理
participant 实验管理
participant 数据库


用户-> 用户信息管理: 请求修改用户信息
activate 用户
activate 用户信息管理
用户信息管理-> 数据库:修改的数据信息
activate 数据库
数据库-> 数据库: 进行用户查询
数据库-> 数据库: 写入修改的数据
数据库- -> 用户: 返回结果
deactivate 用户信息管理
deactivate 数据库
deactivate 用户

用户-> 系统用户管理: 请求
activate 用户
activate 系统用户管理
系统用户管理-> 数据库: 连接数据库
activate 数据库
数据库-> 数据库: 数据查询
数据库-> 数据库: 数据操作
数据库- -> 用户: 返回查询结果
deactivate 系统用户管理
deactivate 数据库
deactivate 用户

用户-> 被试管理: 请求
activate 用户
activate 被试管理
被试管理-> 数据库: 连接数据库
activate 数据库
数据库-> 数据库: 根据条件进行数据查询
数据库- -> 用户: 返回查询结果
deactivate 被试管理
deactivate 数据库
deactivate 用户


用户-> 实验管理: 请求
activate 用户
activate 实验管理
实验管理-> 数据库: 连接数据库
activate 数据库
数据库-> 数据库: 数据查询
数据库- -> 实验管理: 实验信息
实验管理-> 数据库: 查询详细实验信息
数据库-> 数据库: 数据查询
数据库- -> 实验管理: 查询结果
deactivate 数据库
实验管理- -> 用户: 返回结果
deactivate 实验管理
deactivate 用户
@enduml

PlantUML version 1.2022.7(Tue Aug 23 01:01:30 CST 2022)
(GPL source distribution)
Java Runtime: Java(TM) SE Runtime Environment
JVM: Java HotSpot(TM) 64-Bit Server VM
Default Encoding: GBK
Language: zh
Country: CN
--></g></svg>