<?xml version="1.0" encoding="UTF-8" standalone="no"?><svg xmlns="http://www.w3.org/2000/svg" xmlns:xlink="http://www.w3.org/1999/xlink" contentStyleType="text/css" height="522px" preserveAspectRatio="none" style="width:493px;height:522px;background:#FFFFFF;" version="1.1" viewBox="0 0 493 522" width="493px" zoomAndPan="magnify"><defs/><g><rect fill="#FFFFFF" height="171.772" style="stroke:#181818;stroke-width:1.0;" width="10" x="21" y="72.8745"/><rect fill="#FFFFFF" height="189.5264" style="stroke:#181818;stroke-width:1.0;" width="10" x="21" y="276.4009"/><rect fill="#FFFFFF" height="101.2632" style="stroke:#181818;stroke-width:1.0;" width="10" x="97" y="72.8745"/><rect fill="#FFFFFF" height="119.0176" style="stroke:#181818;stroke-width:1.0;" width="10" x="177" y="276.4009"/><rect fill="#FFFFFF" height="69.5088" style="stroke:#181818;stroke-width:1.0;" width="10" x="284" y="104.6289"/><rect fill="#FFFFFF" height="87.2632" style="stroke:#181818;stroke-width:1.0;" width="10" x="284" y="308.1553"/><rect fill="#FFFFFF" height="108.2632" style="stroke:#181818;stroke-width:1.0;" width="10" x="378" y="136.3833"/><rect fill="#FFFFFF" height="126.0176" style="stroke:#181818;stroke-width:1.0;" width="10" x="378" y="339.9097"/><line style="stroke:#181818;stroke-width:0.5;stroke-dasharray:5.0,5.0;" x1="26" x2="26" y1="39.1201" y2="483.9272"/><line style="stroke:#181818;stroke-width:0.5;stroke-dasharray:5.0,5.0;" x1="102" x2="102" y1="39.1201" y2="483.9272"/><line style="stroke:#181818;stroke-width:0.5;stroke-dasharray:5.0,5.0;" x1="182" x2="182" y1="39.1201" y2="483.9272"/><line style="stroke:#181818;stroke-width:0.5;stroke-dasharray:5.0,5.0;" x1="289" x2="289" y1="39.1201" y2="483.9272"/><line style="stroke:#181818;stroke-width:0.5;stroke-dasharray:5.0,5.0;" x1="383" x2="383" y1="39.1201" y2="483.9272"/><rect fill="#E2E2F0" height="33.1201" rx="2.5" ry="2.5" style="stroke:#181818;stroke-width:0.5;" width="42" x="5" y="5"/><text fill="#000000" font-family="AR PL UMing CN" font-size="14" lengthAdjust="spacing" textLength="28" x="12" y="28.0439">用户</text><rect fill="#E2E2F0" height="33.1201" rx="2.5" ry="2.5" style="stroke:#181818;stroke-width:0.5;" width="42" x="5" y="482.9272"/><text fill="#000000" font-family="AR PL UMing CN" font-size="14" lengthAdjust="spacing" textLength="28" x="12" y="505.9712">用户</text><rect fill="#E2E2F0" height="33.1201" rx="2.5" ry="2.5" style="stroke:#181818;stroke-width:0.5;" width="70" x="67" y="5"/><text fill="#000000" font-family="AR PL UMing CN" font-size="14" lengthAdjust="spacing" textLength="56" x="74" y="28.0439">注册页面</text><rect fill="#E2E2F0" height="33.1201" rx="2.5" ry="2.5" style="stroke:#181818;stroke-width:0.5;" width="70" x="67" y="482.9272"/><text fill="#000000" font-family="AR PL UMing CN" font-size="14" lengthAdjust="spacing" textLength="56" x="74" y="505.9712">注册页面</text><rect fill="#E2E2F0" height="33.1201" rx="2.5" ry="2.5" style="stroke:#181818;stroke-width:0.5;" width="70" x="147" y="5"/><text fill="#000000" font-family="AR PL UMing CN" font-size="14" lengthAdjust="spacing" textLength="56" x="154" y="28.0439">登录页面</text><rect fill="#E2E2F0" height="33.1201" rx="2.5" ry="2.5" style="stroke:#181818;stroke-width:0.5;" width="70" x="147" y="482.9272"/><text fill="#000000" font-family="AR PL UMing CN" font-size="14" lengthAdjust="spacing" textLength="56" x="154" y="505.9712">登录页面</text><rect fill="#E2E2F0" height="33.1201" rx="2.5" ry="2.5" style="stroke:#181818;stroke-width:0.5;" width="98" x="240" y="5"/><text fill="#000000" font-family="AR PL UMing CN" font-size="14" lengthAdjust="spacing" textLength="84" x="247" y="28.0439">业务功能处理</text><rect fill="#E2E2F0" height="33.1201" rx="2.5" ry="2.5" style="stroke:#181818;stroke-width:0.5;" width="98" x="240" y="482.9272"/><text fill="#000000" font-family="AR PL UMing CN" font-size="14" lengthAdjust="spacing" textLength="84" x="247" y="505.9712">业务功能处理</text><rect fill="#E2E2F0" height="33.1201" rx="2.5" ry="2.5" style="stroke:#181818;stroke-width:0.5;" width="56" x="355" y="5"/><text fill="#000000" font-family="AR PL UMing CN" font-size="14" lengthAdjust="spacing" textLength="42" x="362" y="28.0439">数据库</text><rect fill="#E2E2F0" height="33.1201" rx="2.5" ry="2.5" style="stroke:#181818;stroke-width:0.5;" width="56" x="355" y="482.9272"/><text fill="#000000" font-family="AR PL UMing CN" font-size="14" lengthAdjust="spacing" textLength="42" x="362" y="505.9712">数据库</text><rect fill="#FFFFFF" height="171.772" style="stroke:#181818;stroke-width:1.0;" width="10" x="21" y="72.8745"/><rect fill="#FFFFFF" height="189.5264" style="stroke:#181818;stroke-width:1.0;" width="10" x="21" y="276.4009"/><rect fill="#FFFFFF" height="101.2632" style="stroke:#181818;stroke-width:1.0;" width="10" x="97" y="72.8745"/><rect fill="#FFFFFF" height="119.0176" style="stroke:#181818;stroke-width:1.0;" width="10" x="177" y="276.4009"/><rect fill="#FFFFFF" height="69.5088" style="stroke:#181818;stroke-width:1.0;" width="10" x="284" y="104.6289"/><rect fill="#FFFFFF" height="87.2632" style="stroke:#181818;stroke-width:1.0;" width="10" x="284" y="308.1553"/><rect fill="#FFFFFF" height="108.2632" style="stroke:#181818;stroke-width:1.0;" width="10" x="378" y="136.3833"/><rect fill="#FFFFFF" height="126.0176" style="stroke:#181818;stroke-width:1.0;" width="10" x="378" y="339.9097"/><polygon fill="#181818" points="85,68.8745,95,72.8745,85,76.8745,89,72.8745" style="stroke:#181818;stroke-width:1.0;"/><line style="stroke:#181818;stroke-width:1.0;" x1="31" x2="91" y1="72.8745" y2="72.8745"/><text fill="#000000" font-family="AR PL UMing CN" font-size="13" lengthAdjust="spacing" textLength="52" x="38" y="68.0181">注册请求</text><polygon fill="#181818" points="272,100.6289,282,104.6289,272,108.6289,276,104.6289" style="stroke:#181818;stroke-width:1.0;"/><line style="stroke:#181818;stroke-width:1.0;" x1="107" x2="278" y1="104.6289" y2="104.6289"/><text fill="#000000" font-family="AR PL UMing CN" font-size="13" lengthAdjust="spacing" textLength="52" x="169.5" y="99.7725">注册信息</text><polygon fill="#181818" points="366,132.3833,376,136.3833,366,140.3833,370,136.3833" style="stroke:#181818;stroke-width:1.0;"/><line style="stroke:#181818;stroke-width:1.0;" x1="294" x2="372" y1="136.3833" y2="136.3833"/><text fill="#000000" font-family="AR PL UMing CN" font-size="13" lengthAdjust="spacing" textLength="65" x="303.5" y="131.5269">连接数据库</text><line style="stroke:#181818;stroke-width:1.0;" x1="388" x2="430" y1="173.1377" y2="173.1377"/><line style="stroke:#181818;stroke-width:1.0;" x1="430" x2="430" y1="173.1377" y2="186.1377"/><line style="stroke:#181818;stroke-width:1.0;" x1="383" x2="430" y1="186.1377" y2="186.1377"/><polygon fill="#181818" points="393,182.1377,383,186.1377,393,190.1377,389,186.1377" style="stroke:#181818;stroke-width:1.0;"/><text fill="#000000" font-family="AR PL UMing CN" font-size="13" lengthAdjust="spacing" textLength="78" x="395" y="168.2813">进行重复验证</text><polygon fill="#181818" points="42,208.8921,32,212.8921,42,216.8921,38,212.8921" style="stroke:#181818;stroke-width:1.0;"/><line style="stroke:#181818;stroke-width:1.0;stroke-dasharray:2.0,2.0;" x1="36" x2="377" y1="212.8921" y2="212.8921"/><text fill="#000000" font-family="AR PL UMing CN" font-size="13" lengthAdjust="spacing" textLength="78" x="165.5" y="208.0356">用户重复注册</text><polygon fill="#181818" points="37,240.6465,27,244.6465,37,248.6465,33,244.6465" style="stroke:#181818;stroke-width:1.0;"/><line style="stroke:#181818;stroke-width:1.0;stroke-dasharray:2.0,2.0;" x1="31" x2="382" y1="244.6465" y2="244.6465"/><text fill="#000000" font-family="AR PL UMing CN" font-size="13" lengthAdjust="spacing" textLength="130" x="139.5" y="239.79">注册成功返回登录页面</text><polygon fill="#181818" points="165,272.4009,175,276.4009,165,280.4009,169,276.4009" style="stroke:#181818;stroke-width:1.0;"/><line style="stroke:#181818;stroke-width:1.0;" x1="31" x2="171" y1="276.4009" y2="276.4009"/><text fill="#000000" font-family="AR PL UMing CN" font-size="13" lengthAdjust="spacing" textLength="117" x="45.5" y="271.5444">选择权限，请求登录</text><polygon fill="#181818" points="272,304.1553,282,308.1553,272,312.1553,276,308.1553" style="stroke:#181818;stroke-width:1.0;"/><line style="stroke:#181818;stroke-width:1.0;" x1="187" x2="278" y1="308.1553" y2="308.1553"/><text fill="#000000" font-family="AR PL UMing CN" font-size="13" lengthAdjust="spacing" textLength="78" x="196.5" y="303.2988">登录用户信息</text><polygon fill="#181818" points="366,335.9097,376,339.9097,366,343.9097,370,339.9097" style="stroke:#181818;stroke-width:1.0;"/><line style="stroke:#181818;stroke-width:1.0;" x1="294" x2="372" y1="339.9097" y2="339.9097"/><text fill="#000000" font-family="AR PL UMing CN" font-size="13" lengthAdjust="spacing" textLength="65" x="303.5" y="335.0532">连接数据库</text><line style="stroke:#181818;stroke-width:1.0;" x1="388" x2="430" y1="394.4185" y2="394.4185"/><line style="stroke:#181818;stroke-width:1.0;" x1="430" x2="430" y1="394.4185" y2="407.4185"/><line style="stroke:#181818;stroke-width:1.0;" x1="383" x2="430" y1="407.4185" y2="407.4185"/><polygon fill="#181818" points="393,403.4185,383,407.4185,393,411.4185,389,407.4185" style="stroke:#181818;stroke-width:1.0;"/><text fill="#000000" font-family="AR PL UMing CN" font-size="13" lengthAdjust="spacing" textLength="91" x="395" y="371.8076">验证用户权限、</text><text fill="#000000" font-family="AR PL UMing CN" font-size="13" lengthAdjust="spacing" textLength="78" x="401.5" y="389.562">用户名、密码</text><polygon fill="#181818" points="42,430.1729,32,434.1729,42,438.1729,38,434.1729" style="stroke:#181818;stroke-width:1.0;"/><line style="stroke:#181818;stroke-width:1.0;stroke-dasharray:2.0,2.0;" x1="36" x2="377" y1="434.1729" y2="434.1729"/><text fill="#000000" font-family="AR PL UMing CN" font-size="13" lengthAdjust="spacing" textLength="117" x="146" y="429.3164">验证失败，提示错误</text><polygon fill="#181818" points="37,461.9272,27,465.9272,37,469.9272,33,465.9272" style="stroke:#181818;stroke-width:1.0;"/><line style="stroke:#181818;stroke-width:1.0;stroke-dasharray:2.0,2.0;" x1="31" x2="382" y1="465.9272" y2="465.9272"/><text fill="#000000" font-family="AR PL UMing CN" font-size="13" lengthAdjust="spacing" textLength="169" x="120" y="461.0708">登录成功，进入对应权限首页</text><!--MD5=[1ba3dd179295e4b32acf1047be238afd]
@startuml dataana
skinparam defaultFontName AR PL UMing CN
skinparam sequenceMessageAlign center
participant 用户
participant 注册页面
participant 登录页面
participant 业务功能处理


用户-> 注册页面: 注册请求
activate 用户
activate 注册页面
注册页面-> 业务功能处理:注册信息
activate 业务功能处理
业务功能处理-> 数据库:连接数据库
activate 数据库
数据库-> 数据库: 进行重复验证
deactivate 注册页面
deactivate 业务功能处理
数据库- -> 用户: 用户重复注册
数据库- -> 用户: 注册成功返回登录页面
deactivate 数据库
deactivate 用户



用户-> 登录页面: 选择权限，请求登录
activate 用户
activate 登录页面
登录页面-> 业务功能处理:登录用户信息
activate 业务功能处理
业务功能处理-> 数据库:连接数据库
activate 数据库
数据库-> 数据库: 验证用户权限、\n用户名、密码
deactivate 登录页面
deactivate 业务功能处理
数据库- -> 用户: 验证失败，提示错误
数据库- -> 用户: 登录成功，进入对应权限首页
deactivate 数据库
deactivate 用户


@enduml

PlantUML version 1.2022.7(Tue Aug 23 01:01:30 CST 2022)
(GPL source distribution)
Java Runtime: Java(TM) SE Runtime Environment
JVM: Java HotSpot(TM) 64-Bit Server VM
Default Encoding: GBK
Language: zh
Country: CN
--></g></svg>